<svg version="1.2" xmlns="http://www.w3.org/2000/svg" viewBox="0 0 1080 1080" width="1080" height="1080"><defs><linearGradient id="P" gradientUnits="userSpaceOnUse"/><linearGradient id="g1" x2="1" href="#P" gradientTransform="matrix(0,-324,326,0,531,684)"><stop stop-color="#ababab"/><stop offset="1" stop-color="#fff"/></linearGradient></defs><style>.a{fill:#313131}.b{fill:url(#g1)}</style><path fill-rule="evenodd" class="a" d="m373 215h333c86.2 0 156 69.8 156 156v329c0 86.2-69.8 156-156 156h-333c-86.2 0-156-69.8-156-156v-329c0-86.2 69.8-156 156-156z"/><path fill-rule="evenodd" class="b" d="m530 360h2c89.5 0 162 72.5 162 162 0 89.5-72.5 162-162 162h-154c-5.5 0-10-4.5-10-10v-152c0-89.5 72.5-162 162-162z"/></svg>