<svg xmlns="http://www.w3.org/2000/svg" viewBox="0 0 1080 1080" width="1080" height="1080">
    <defs>
        <linearGradient gradientUnits="userSpaceOnUse" id="gradient" x2="1" gradientTransform="matrix(0,-324,326,0,531,684)">
            <stop stop-color="#004aad"/>
            <stop offset="1" stop-color="#00d4ff"/>
        </linearGradient>
    </defs>
    <path fill-rule="evenodd" fill="#120e1c" d="m373 215h333c86.2 0 156 69.8 156 156v329c0 86.2-69.8 156-156 156h-333c-86.2 0-156-69.8-156-156v-329c0-86.2 69.8-156 156-156z"/>
    <path fill-rule="evenodd" fill="url(#gradient)" d="m530 360h2c89.5 0 162 72.5 162 162 0 89.5-72.5 162-162 162h-154c-5.5 0-10-4.5-10-10v-152c0-89.5 72.5-162 162-162z"/>
</svg>